<?xml version="1.0" encoding="utf-8"?>
<!-- Generator: Adobe Illustrator 19.1.0, SVG Export Plug-In . SVG Version: 6.00 Build 0)  -->
<svg version="1.1" id="Layer_1" xmlns="http://www.w3.org/2000/svg" xmlns:xlink="http://www.w3.org/1999/xlink" x="0px" y="0px"
	 viewBox="0 0 96 21.8" enable-background="new 0 0 96 21.8" xml:space="preserve">
<g>
	<g>
		<path fill="#FFFFFF" d="M0,0.2h3.5c3.5,0,6.3,2.2,6.3,5.8c0,3.9-2.4,6-6.3,6H0V0.2z M1.7,10.5h1.8c2.9,0,4.5-1.4,4.5-4.4
			c0-2.7-1.9-4.4-4.3-4.4h-2V10.5z"/>
		<path fill="#FFFFFF" d="M51.8,2c-0.9-0.3-1.3-0.5-2.2-0.5c-0.9,0-2.1,0.3-2.1,1.6c0,2.3,5,1.7,5,5.6c0,2.5-1.9,3.5-4.3,3.5
			c-0.8,0-1.6-0.2-2.4-0.5l0.2-1.6c0.6,0.2,1.6,0.6,2.4,0.6c1,0,2.3-0.5,2.3-1.9c0-2.6-5-1.9-5-5.5c0-2.1,1.6-3.2,3.8-3.2
			c0.8,0,1.7,0.1,2.5,0.4L51.8,2z"/>
		<polygon fill="#FFFFFF" points="11.7,6 10.9,6.7 11.7,7.4 11.7,12.1 17.5,12.1 17.5,10.6 13.3,10.6 13.3,7.4 17.1,7.4 17.1,6 
			13.3,6 13.3,3.2 17.5,3.2 17.5,1.7 11.7,1.7 		"/>
		<polygon fill="#FFFFFF" points="58.9,6 58.2,6.7 58.9,7.4 58.9,12.1 64.8,12.1 64.8,10.6 60.6,10.6 60.6,7.4 64.4,7.4 64.4,6 
			60.6,6 60.6,3.2 64.8,3.2 64.8,1.7 58.9,1.7 		"/>
		<polygon fill="#FFFFFF" points="20.8,1.7 19.2,1.7 19.2,12.1 25,12.1 25,10.6 20.8,10.6 		"/>
		<polygon fill="#FFFFFF" points="32.4,1.7 24.5,1.7 24.5,3.2 27.6,3.2 27.6,12.1 29.3,12.1 29.3,3.2 32.4,3.2 		"/>
		<path fill="#FFFFFF" d="M41.3,8.1l-1.3,0l-3.3-6.7l-0.1-0.2l-3.3,6.9h-1.3l0.7,1.3l-1.3,2.6h1.8l1.2-2.6h4.4l1.2,2.6h1.7l-1.3-2.7
			L41.3,8.1z M38.3,8.1H35l1.6-3.6L38.3,8.1z"/>
		<path fill="#FFFFFF" d="M94.1,9.4l0.7-1.2l-1.3,0l-3.3-6.7l-0.1-0.2l-3.3,6.9h-1.3l0.7,1.3l-1.3,2.6h1.8L88,9.5h4.4l1.2,2.6h1.7
			L94.1,9.4z M91.8,8.1h-3.3l1.6-3.6L91.8,8.1z"/>
		<rect x="54.7" y="1.7" fill="#FFFFFF" width="1.6" height="10.3"/>
		<path fill="#FFFFFF" d="M81.4,6.9c1.2-0.3,1.9-1.2,1.9-2.3c0-1.4-0.5-2.8-4-2.8h-2.6v4.4l-0.8,0.7l0.8,0.8v4.4h1.6V7.6h0.8
			c0.8,0,1.2,0,1.6,0.9l1.6,3.5l0,0.1h1.9l-2-4.2C81.9,7.4,81.7,7.1,81.4,6.9z M81.6,4.6c0,0.9-0.8,1.5-2.1,1.5h-1.1V3.2h1.3
			C80.9,3.2,81.6,3.7,81.6,4.6z"/>
		<path fill="#FFFFFF" d="M72,6.9C73.2,6.6,74,5.7,74,4.6c0-1.4-0.5-2.8-4-2.8h-2.6v4.4l-0.8,0.7l0.8,0.8v4.4H69V7.6h0.8
			c0.8,0,1.2,0,1.6,0.9L73,12l0,0.1h1.9l-2-4.2C72.6,7.4,72.4,7.1,72,6.9z M72.2,4.6c0,0.9-0.8,1.5-2.1,1.5H69V3.2h1.3
			C71.5,3.2,72.2,3.7,72.2,4.6z"/>
	</g>
	<g>
		<path fill="#FFFFFF" d="M30.4,15h3.8v0.9h-2.8v2h2.6v0.9h-2.6V21h2.8v0.9h-3.8v-3.1l-0.5-0.5l0.5-0.4V15z"/>
		<path fill="#FFFFFF" d="M42.3,15h3.8v0.9h-2.8v2h2.6v0.9h-2.6V21h2.8v0.9h-3.8v-3.1l-0.5-0.5l0.5-0.4V15z"/>
		<path fill="#FFFFFF" d="M67.5,15h3.8v0.9h-2.8v2h2.6v0.9h-2.6V21h2.8v0.9h-3.8v-3.1L67,18.3l0.5-0.4V15z"/>
		<path fill="#FFFFFF" d="M56.3,14.8l2.2,4.5l0.8,0l-0.4,0.8l0.8,1.7h-1l-0.8-1.7h-3.1L54,21.8h-1.1l0.8-1.7l-0.4-0.8l0.8,0
			L56.3,14.8z M56.3,16.7l-1.2,2.6h2.4L56.3,16.7z"/>
		<path fill="#FFFFFF" d="M47.4,15H49c1.3,0,2.6,0.2,2.6,1.8c0,0.8-0.6,1.4-1.4,1.6v0c0.3,0.1,0.4,0.3,0.7,0.7l1.3,2.7h-1.1l-1-2.4
			c-0.3-0.7-0.6-0.7-1.1-0.7h-0.6v3h-1v-2.9l-0.5-0.5l0.5-0.5V15z M48.4,18h0.8c0.9,0,1.5-0.4,1.5-1.1c0-0.6-0.5-1-1.4-1h-0.9V18z"
			/>
		<path fill="#FFFFFF" d="M24.5,15h1.8c1.4,0,2.4,0.5,2.4,1.7c0,0.9-0.5,1.4-1.4,1.6v0c0.9,0.1,1.6,0.7,1.6,1.6
			c0,1.5-1.2,1.8-2.6,1.8h-1.8v-3.1L24,18.4l0.5-0.5V15z M25.5,17.9H26c0.9,0,1.7-0.1,1.7-1.1c0-0.8-0.7-1-1.3-1h-1V17.9z M25.5,21
			h0.7c0.9,0,1.7-0.2,1.7-1.1c0-1.1-0.9-1.2-1.8-1.2h-0.6V21z"/>
		<path fill="#FFFFFF" d="M38.8,21.8h-1.2L35,15h1.1l2.1,5.9h0l2.2-5.9h1L38.8,21.8z"/>
		<path fill="#FFFFFF" d="M65.5,16.2c-0.5-0.3-1-0.5-1.9-0.5c-1.6,0-2.6,1.1-2.6,2.7c0,1.6,1.2,2.7,2.6,2.7c0.7,0,0.8-0.1,1.1-0.1
			v-2.1h-1.4v-0.8h2.4v3.5c-0.4,0.1-1,0.3-2.1,0.3c-2.2,0-3.6-1.4-3.6-3.5c0-2.1,1.5-3.5,3.6-3.5c1,0,1.4,0.1,2,0.3L65.5,16.2z"/>
	</g>
	<rect x="0" y="17.8" fill="#FFFFFF" width="22.1" height="0.9"/>
	<rect x="73.9" y="17.8" fill="#FFFFFF" width="22.1" height="0.9"/>
</g>
</svg>
