<?xml version="1.0" encoding="utf-8"?>
<!-- Generator: Adobe Illustrator 19.1.0, SVG Export Plug-In . SVG Version: 6.00 Build 0)  -->
<svg version="1.1" id="Layer_1" xmlns="http://www.w3.org/2000/svg" xmlns:xlink="http://www.w3.org/1999/xlink" x="0px" y="0px"
	 viewBox="0 0 96 48.1" enable-background="new 0 0 96 48.1" xml:space="preserve">
<path fill="#FFFFFF" d="M0.1,16.4c0,0.4,0.7,0.6,1.1,0.6c1.1-0.1,1.3,0.4,1.3,1.4c0,5.9,0,11.8,0,17.6c0,0.9-0.2,1.3-1.2,1.2
	c-0.4,0-1.3,0-1.3,0.4c-0.1,0.6,0.8,0.6,1.2,0.6c4.2,0,8.4,0,12.6,0c0.3,0,0.5,0,0.8-0.1c0.2-0.1,0.5-0.2,0.5-0.5
	c0-0.3-0.3-0.3-0.5-0.4c-0.4-0.1-0.8-0.1-1.2-0.1c-0.6,0-1-0.9-1-0.9s0-6.6,0-7.3c0-1.3,1.1-1.1,1.3-0.9c0.8,1,1.5,2.1,2.3,3.2
	c0.1,0.1,0.1,0.1,0.2,0.2c0.5,0.4,1.3,0.1,1.4-0.6c0,0,0,0,0,0c0-2.4,0.1-4.8,0-7.1c0,0,0,0,0,0c0-0.8-1.1-1.1-1.6-0.5
	c0,0,0,0,0,0.1c-0.7,0.9-1.3,1.9-2,2.8c-0.2,0.3-1.4,0.6-1.4-0.5c0-2.5,0-5,0-7.5c0-0.8,0.4-1,1.1-1.1c1.5-0.1,2.6,0.6,3.4,1.5
	c1.4,1.6,2.6,3.3,3.9,5c0.1,0.1,0.1,0.1,0.2,0.2c0.5,0.4,1.3,0,1.3-0.7l0,0c0-1.9-0.1-3.7,0-5.6c0-1.1-0.4-1.5-1.5-1.5
	c-6.4,0-12.9,0-19.3,0C1,16,0.1,16,0.1,16.4z"/>
<path fill="#FFFFFF" d="M36.3,36.7c0.1,0.8,0.7,1.4,1.5,1.4h7.5c0.8,0,0.4-0.7-0.1-0.7c-1.5-0.1-1.4-1-1.4-2c0-3.7,0-7.4,0-11.1
	c0-1.1-0.2-1.3-1.6-1.3c-1.8,0-4.7,0-6.3,0c-0.5,0-1,0.1-1.5,0.3c-0.1,0.1-0.4,0.4,0.1,0.4c2.1,0,1.5,1.7,1.5,2.8c0,2.1,0,4.4,0,6.6
	c0,0.6-0.1,1.3-0.3,1.9c-0.2,0.7-0.7,1.4-1.6,1.3c-1.1-0.1-1-1.1-1-1.8c0-3.3,0-6.6,0-9.8c0-0.5,0-1,0-1.7c-2.5,0-4.9,0-7.3,0
	c-0.5,0-1.4,0-1.9,0c-0.7,0-0.7,0.7,0,0.7c1.7,0,1.3,2.7,1.3,2.7s0,4.4,0,6.6c0.1,4.1,2.7,6.3,6.8,5.5
	C33.5,38.2,34.9,37.3,36.3,36.7L36.3,36.7z"/>
<path fill="#FFFFFF" d="M56.1,24c-1.1,1.7-2,3.1-3,4.6c-1.7,2.7-3.5,5.3-5.2,8c-0.7,1.1-0.5,1.6,0.5,1.6c5.2,0,10.4,0,15.7,0
	c0.3,0,0.9-0.5,1-0.9c0.2-1.4,0.2-2.8,0.3-4.3c0-0.3,0-0.7-0.4-0.9c-0.4-0.1-0.6,0.3-0.7,0.5c-1.4,2.2-3.6,3.5-5.9,4.4
	c-0.4,0.2-0.9,0.1-1.7,0.1c1.3-2.1,2.5-3.9,3.7-5.7c1.5-2.3,3.1-4.7,4.6-7c0.7-1,0.5-1.5-0.5-1.5c-4.9,0-9.8,0-14.6,0
	c-0.3,0-0.9,0.5-1,0.9c-0.1,1.4-0.1,2.8-0.1,4.1c0,0.2,0,0.6,0.4,0.7c0.4,0.1,0.4-0.3,0.6-0.5c0.5-0.7,0.8-1.4,1.4-2
	C52.4,25,53.9,23.9,56.1,24z"/>
<path fill="#FFFFFF" d="M78.4,37.9c0.3-0.1,0.2-0.5-0.2-0.5c-1.3,0-1.3-0.8-1.3-1.8c0-3.5,0-7.1,0-10.6c0-0.7,0-1.4,0-2.1
	c-2.7-0.4-8.6-0.1-9.7,0.9c1.9,0,1.7,1.6,1.7,2.8c0,2.7,0,5.4,0,8c0,1.3,0.3,2.7-1.6,2.8c-0.6,0.2,0,0.3,0,0.4
	C68,38.3,77,38.5,78.4,37.9z"/>
<path fill="#FFFFFF" d="M87.7,38.3c4.6,0.1,8.2-3.5,8.2-8c0-4.5-3.5-8.1-8-8.2c-4.6-0.1-8.2,3.4-8.3,8
	C79.6,34.6,83.2,38.3,87.7,38.3z M84.9,24.7c-0.2-0.5,0.6-1.2,1-1.3c0.5-0.2,1.4,0.2,1.6,0.9c0.3,0.9,2.9,7.9,3.8,10.5
	c0.3,0.9,0.2,1.5-0.7,1.9c-0.9,0.4-1.6,0.1-1.9-0.8c-1.3-3.5-2.5-7-3.7-10.5C85,25.3,85,25.2,84.9,24.7z"/>
<g>
	<path fill="#FFFFFF" d="M7,46v-2.5h0.9V46c0,0.6,0.3,1,1,1c0.6,0,1-0.4,1-1v-2.4h0.9V46c0,1-0.6,1.7-1.9,1.7S7,47,7,46z"/>
	<path fill="#FFFFFF" d="M16.2,47.6l-2-2.7v2.7h-0.9v-4.1h0.9l1.9,2.6v-2.6h0.9v4.1H16.2z"/>
	<path fill="#FFFFFF" d="M19.7,47.6v-4.1h0.9v4.1H19.7z"/>
	<path fill="#FFFFFF" d="M24.4,47.6l-1.6-4.1h1l1.1,3.2l1.1-3.2h1l-1.6,4.1H24.4z"/>
	<path fill="#FFFFFF" d="M29.4,47.6v-4.1h2.9v0.8h-2v0.9h2v0.8h-2v0.9h2v0.8H29.4z"/>
	<path fill="#FFFFFF" d="M37.2,47.6l-0.8-1.5h-0.6v1.5h-0.9v-4.1h1.9c0.9,0,1.4,0.6,1.4,1.3c0,0.7-0.5,1.1-0.9,1.2l0.9,1.6H37.2z
		 M37.2,44.8c0-0.3-0.3-0.5-0.6-0.5h-0.9v1.1h0.9C37,45.4,37.2,45.2,37.2,44.8z"/>
	<path fill="#FFFFFF" d="M40.4,47.1l0.5-0.7c0.3,0.3,0.7,0.6,1.3,0.6c0.5,0,0.7-0.2,0.7-0.5c0-0.7-2.4-0.2-2.4-1.8
		c0-0.7,0.6-1.3,1.6-1.3c0.7,0,1.2,0.2,1.6,0.6l-0.5,0.7c-0.3-0.3-0.8-0.5-1.2-0.5c-0.4,0-0.6,0.2-0.6,0.4c0,0.6,2.4,0.2,2.4,1.7
		c0,0.8-0.5,1.3-1.6,1.3C41.3,47.7,40.8,47.4,40.4,47.1z"/>
	<path fill="#FFFFFF" d="M49,47.6l-0.3-0.7H47l-0.3,0.7h-1l1.6-4.1h1.1l1.6,4.1H49z M47.9,44.4l-0.6,1.8h1.3L47.9,44.4z"/>
	<path fill="#FFFFFF" d="M52.2,47.6v-4.1h0.9v3.3h1.7v0.8H52.2z"/>
	<path fill="#FFFFFF" d="M60.7,47.6v-4.1h2.2c0.8,0,1.2,0.5,1.2,1.1c0,0.5-0.3,0.9-0.7,0.9c0.4,0.1,0.8,0.5,0.8,1
		c0,0.6-0.4,1.1-1.2,1.1H60.7z M63.2,44.7c0-0.3-0.2-0.4-0.5-0.4h-1.1v0.9h1.1C63,45.2,63.2,45,63.2,44.7z M63.3,46.4
		c0-0.3-0.2-0.5-0.5-0.5h-1.1v0.9h1.1C63.1,46.9,63.3,46.7,63.3,46.4z"/>
	<path fill="#FFFFFF" d="M66.7,47.6v-4.1h0.9v4.1H66.7z"/>
	<path fill="#FFFFFF" d="M69.9,47.1l0.5-0.7c0.3,0.3,0.7,0.6,1.3,0.6c0.5,0,0.7-0.2,0.7-0.5c0-0.7-2.4-0.2-2.4-1.8
		c0-0.7,0.6-1.3,1.6-1.3c0.7,0,1.2,0.2,1.6,0.6l-0.5,0.7c-0.3-0.3-0.8-0.5-1.2-0.5c-0.4,0-0.6,0.2-0.6,0.4c0,0.6,2.4,0.2,2.4,1.7
		c0,0.8-0.5,1.3-1.6,1.3C70.9,47.7,70.3,47.4,69.9,47.1z"/>
	<path fill="#FFFFFF" d="M76.7,47.6v-3.3h-1.2v-0.8h3.3v0.8h-1.2v3.3H76.7z"/>
	<path fill="#FFFFFF" d="M83.5,47.6l-0.8-1.5H82v1.5h-0.9v-4.1h1.9c0.9,0,1.4,0.6,1.4,1.3c0,0.7-0.5,1.1-0.9,1.2l0.9,1.6H83.5z
		 M83.6,44.8c0-0.3-0.3-0.5-0.6-0.5H82v1.1H83C83.3,45.4,83.6,45.2,83.6,44.8z"/>
	<path fill="#FFFFFF" d="M86.8,45.6c0-1.2,0.9-2.1,2.2-2.1c1.2,0,2.2,0.9,2.2,2.1c0,1.2-0.9,2.1-2.2,2.1
		C87.7,47.7,86.8,46.8,86.8,45.6z M90.2,45.6c0-0.8-0.5-1.4-1.2-1.4c-0.8,0-1.3,0.6-1.3,1.4c0,0.8,0.5,1.4,1.3,1.4
		C89.7,46.9,90.2,46.3,90.2,45.6z"/>
</g>
<path fill="#FFFFFF" d="M77.7,10.5c-0.3-1.4-0.3-2.7-0.1-4.2c0.5-3.7-1.5-6.8-5.9-6.3C69.5,0.3,68,1.6,67,3.4
	c-0.6,1-1.2,1.7-2.2,2.3c-3.2,2-3.5,6.4-0.6,8.8c2.3,2,6.9,1.8,9.6-0.5c0.5-0.4,1-0.9,1.6-1.4c0.2,2-1.2,4.2-3.1,5.1
	c-1.3,0.7-1.8,0.6-2.2-0.4c-0.2-0.5-0.7-0.8-1.2-0.6c0,0-0.1,0-0.1,0c-0.4,0.2-0.7,0.6-0.6,1.1c0.1,0.5,0.5,2.1,2.6,2.3
	c1.9,0.2,2.7-0.2,4.1-1.4C77.5,16.6,78.3,13.7,77.7,10.5z M73.9,10.8c-1.3,1.6-2.8,2.7-4.8,3.1c-1.6,0.3-3.2-0.5-4.1-2.1
	c-0.7-1.3-0.5-2.7,0.5-3.8c0.1,0.5,0.2,0.9,0.3,1.3c0.5,2,2.1,3.1,4.1,2.7c0.6-0.1,1.5-0.6,1.7-1.1c0.3-0.6,0.4-1.7,0-2.2
	c-0.1-0.1-0.1-0.1-0.2-0.2c-0.9-0.4-1.9,0.3-1.9,1.3v0.6c-1.3-0.6-2.1-2.7-1.5-3.7c0.1-0.2,0.5-0.4,0.8-0.4c2.6-0.4,5,1.1,6,3.6
	C74.5,10.2,74.2,10.5,73.9,10.8z M75.4,6.1c-2-1.4-4.1-2.1-6.6-1.8c1.1-2,2.8-3,4.1-2.6C74.7,2.1,75.6,3.7,75.4,6.1z"/>
</svg>
