<?xml version="1.0" encoding="UTF-8" standalone="no"?>
<svg width="184px" height="47px" viewBox="0 0 184 47" version="1.1" xmlns="http://www.w3.org/2000/svg" xmlns:xlink="http://www.w3.org/1999/xlink" xmlns:sketch="http://www.bohemiancoding.com/sketch/ns">
    <!-- Generator: Sketch 3.3.2 (12043) - http://www.bohemiancoding.com/sketch -->
    <title>CENTERRA + CAPITAL</title>
    <desc>Created with Sketch.</desc>
    <defs></defs>
    <g id="Page-1" stroke="none" stroke-width="1" fill="none" fill-rule="evenodd" sketch:type="MSPage">
        <g id="centerra_design_v01" sketch:type="MSArtboardGroup" transform="translate(-59.000000, -53.000000)" fill="#FFFFFF">
            <g id="CENTERRA-+-CAPITAL" sketch:type="MSLayerGroup" transform="translate(59.000000, 53.000000)">
                <path d="M14.16375,6.99 C15.03375,7.47 16.71375,7.86 17.85375,7.86 C18.18375,6.33 18.42375,3.84 18.42375,2.04 C16.74375,1.2 14.55375,0.63 12.27375,0.63 C6.03375,0.63 0.96375,4.89 0.96375,12.06 C0.96375,18.51 4.98375,23.1 11.07375,23.1 C13.41375,23.1 15.78375,22.41 17.52375,21.51 C18.00375,20.73 18.33375,19.29 18.24375,18.45 C16.26375,19.17 13.68375,19.59 12.12375,19.59 C8.49375,19.59 5.88375,17.07 5.88375,11.64 C5.88375,6.24 8.49375,3.6 12.00375,3.6 C12.81375,3.6 13.50375,3.75 14.16375,4.05 L14.16375,6.99 Z M39.91375,22.5 L39.91375,16.74 C38.89375,16.74 37.18375,16.92 36.34375,17.19 C36.16375,17.88 36.01375,18.84 35.95375,19.62 L29.95375,19.62 L29.95375,13.02 L34.57375,13.02 C34.60375,13.38 34.72375,14.04 34.84375,14.4 C35.71375,14.67 37.15375,14.73 38.14375,14.64 L38.14375,8.49 C37.06375,8.49 35.71375,8.67 34.87375,8.94 C34.75375,9.33 34.63375,9.93 34.60375,10.26 L29.95375,10.26 L29.95375,4.05 L35.86375,4.05 C35.92375,4.68 36.07375,5.67 36.22375,6.21 C37.15375,6.51 38.59375,6.66 39.61375,6.66 L39.61375,1.23 L23.32375,1.23 C23.17375,1.86 23.23375,3.33 23.35375,3.99 C23.83375,4.14 24.70375,4.29 25.33375,4.35 L25.33375,19.32 C24.79375,19.41 23.71375,19.62 23.26375,19.8 C22.99375,20.4 22.72375,21.75 22.66375,22.5 L39.91375,22.5 Z M52.58375,1.23 L44.84375,1.23 C44.69375,1.86 44.75375,3.33 44.87375,3.99 C45.35375,4.14 46.22375,4.29 46.85375,4.35 L46.85375,19.32 C46.34375,19.41 45.41375,19.62 44.96375,19.8 C44.72375,20.4 44.48375,21.75 44.42375,22.5 L52.82375,22.5 C52.94375,21.87 52.88375,20.4 52.70375,19.74 C52.10375,19.56 51.17375,19.38 50.45375,19.32 L50.45375,5.37 L50.81375,5.37 C51.02375,6.66 51.68375,8.49 52.34375,9.69 L59.69375,22.74 L64.34375,22.74 L64.34375,4.32 C64.88375,4.29 65.90375,4.14 66.35375,3.99 C66.50375,3.36 66.53375,1.83 66.41375,1.23 L58.76375,1.23 C58.61375,1.86 58.67375,3.33 58.79375,3.99 C59.33375,4.14 60.32375,4.29 61.04375,4.35 L61.04375,17.46 L60.68375,17.46 C60.41375,15.93 59.87375,14.31 59.15375,12.99 L52.58375,1.23 Z M81.36375,4.05 L84.66375,4.05 C84.72375,4.77 84.90375,5.91 85.08375,6.57 C86.10375,6.87 87.45375,6.99 88.59375,6.99 L88.59375,1.23 L69.54375,1.23 L69.54375,6.9 C70.56375,6.9 71.94375,6.84 73.02375,6.48 C73.17375,5.88 73.35375,4.68 73.41375,4.05 L76.74375,4.05 L76.74375,19.32 C76.05375,19.41 74.82375,19.65 74.25375,19.83 C73.98375,20.43 73.59375,21.75 73.53375,22.5 L84.48375,22.5 C84.60375,21.87 84.54375,20.4 84.33375,19.74 C83.55375,19.56 82.29375,19.38 81.36375,19.32 L81.36375,4.05 Z M109.12375,22.5 L109.12375,16.74 C108.10375,16.74 106.39375,16.92 105.55375,17.19 C105.37375,17.88 105.22375,18.84 105.16375,19.62 L99.16375,19.62 L99.16375,13.02 L103.78375,13.02 C103.81375,13.38 103.93375,14.04 104.05375,14.4 C104.92375,14.67 106.36375,14.73 107.35375,14.64 L107.35375,8.49 C106.27375,8.49 104.92375,8.67 104.08375,8.94 C103.96375,9.33 103.84375,9.93 103.81375,10.26 L99.16375,10.26 L99.16375,4.05 L105.07375,4.05 C105.13375,4.68 105.28375,5.67 105.43375,6.21 C106.36375,6.51 107.80375,6.66 108.82375,6.66 L108.82375,1.23 L92.53375,1.23 C92.38375,1.86 92.44375,3.33 92.56375,3.99 C93.04375,4.14 93.91375,4.29 94.54375,4.35 L94.54375,19.32 C94.00375,19.41 92.92375,19.62 92.47375,19.8 C92.20375,20.4 91.93375,21.75 91.87375,22.5 L109.12375,22.5 Z M116.06375,19.32 C115.52375,19.41 114.44375,19.62 113.99375,19.8 C113.72375,20.4 113.45375,21.75 113.39375,22.5 L123.02375,22.5 C123.14375,21.87 123.08375,20.4 122.90375,19.74 C122.33375,19.56 121.37375,19.38 120.68375,19.32 L120.68375,13.5 C121.25375,13.62 122.06375,13.71 122.96375,13.71 C124.73375,17.55 127.76375,22.2 128.87375,22.98 C129.86375,22.92 131.99375,22.59 132.86375,22.32 C133.22375,21.6 133.52375,20.13 133.46375,19.2 L131.84375,19.38 C130.97375,18.84 128.87375,16.08 127.16375,12.99 C129.56375,12.09 131.48375,10.11 131.48375,7.26 C131.48375,2.82 127.82375,0.93 122.81375,0.93 C120.08375,0.93 116.36375,1.08 113.99375,1.35 C113.90375,2.16 113.93375,3.57 114.05375,4.26 C114.53375,4.38 115.46375,4.47 116.06375,4.47 L116.06375,19.32 Z M120.68375,3.9 C121.13375,3.84 121.76375,3.81 122.33375,3.81 C124.94375,3.81 126.83375,5.16 126.83375,7.41 C126.83375,9.87 125.18375,10.95 123.17375,10.95 C122.36375,10.95 121.31375,10.89 120.68375,10.77 L120.68375,3.9 Z M139.47375,19.32 C138.93375,19.41 137.85375,19.62 137.40375,19.8 C137.13375,20.4 136.86375,21.75 136.80375,22.5 L146.43375,22.5 C146.55375,21.87 146.49375,20.4 146.31375,19.74 C145.74375,19.56 144.78375,19.38 144.09375,19.32 L144.09375,13.5 C144.66375,13.62 145.47375,13.71 146.37375,13.71 C148.14375,17.55 151.17375,22.2 152.28375,22.98 C153.27375,22.92 155.40375,22.59 156.27375,22.32 C156.63375,21.6 156.93375,20.13 156.87375,19.2 L155.25375,19.38 C154.38375,18.84 152.28375,16.08 150.57375,12.99 C152.97375,12.09 154.89375,10.11 154.89375,7.26 C154.89375,2.82 151.23375,0.93 146.22375,0.93 C143.49375,0.93 139.77375,1.08 137.40375,1.35 C137.31375,2.16 137.34375,3.57 137.46375,4.26 C137.94375,4.38 138.87375,4.47 139.47375,4.47 L139.47375,19.32 Z M144.09375,3.9 C144.54375,3.84 145.17375,3.81 145.74375,3.81 C148.35375,3.81 150.24375,5.16 150.24375,7.41 C150.24375,9.87 148.59375,10.95 146.58375,10.95 C145.77375,10.95 144.72375,10.89 144.09375,10.77 L144.09375,3.9 Z M182.86375,22.5 C182.80375,21.66 182.62375,20.52 182.38375,19.71 C181.93375,19.53 181.24375,19.35 180.76375,19.26 L173.26375,0.87 L169.81375,0.87 L161.98375,19.35 C161.53375,19.44 160.90375,19.62 160.54375,19.8 C160.24375,20.55 159.94375,21.57 159.82375,22.5 L168.28375,22.5 C168.28375,21.75 168.07375,20.43 167.80375,19.77 C167.26375,19.62 166.36375,19.47 165.73375,19.41 C166.09375,18.9 166.45375,17.97 166.63375,17.46 L166.99375,16.47 L174.73375,16.47 L175.06375,17.31 C175.33375,18 175.69375,18.75 176.14375,19.29 C175.63375,19.38 174.79375,19.59 174.28375,19.77 C173.98375,20.46 173.62375,21.78 173.56375,22.5 L182.86375,22.5 Z M171.13375,5.25 C171.19375,6.48 171.79375,8.58 172.12375,9.48 L173.71375,13.68 L168.07375,13.68 L169.60375,9.54 C169.96375,8.58 170.68375,6.45 170.77375,5.25 L171.13375,5.25 Z" id="CENTERRA" sketch:type="MSShapeGroup"></path>
                <path d="M8.249875,46.716 C7.3498705,46.716 6.51587884,46.5480017 5.747875,46.212 C4.97987116,45.8759983 4.31687779,45.4170029 3.758875,44.835 C3.20087221,44.2529971 2.76587656,43.566004 2.453875,42.774 C2.14187344,41.981996 1.985875,41.1360045 1.985875,40.236 L1.985875,40.2 C1.985875,39.3119956 2.14487341,38.472004 2.462875,37.68 C2.78087659,36.887996 3.21887221,36.195003 3.776875,35.601 C4.33487779,35.006997 4.99787116,34.5390017 5.765875,34.197 C6.53387884,33.8549983 7.37387044,33.684 8.285875,33.684 C8.84987782,33.684 9.35987272,33.7319995 9.815875,33.828 C10.2718773,33.9240005 10.6948731,34.0619991 11.084875,34.242 C11.474877,34.4220009 11.8408733,34.6349988 12.182875,34.881 C12.5248767,35.1270012 12.8578734,35.3999985 13.181875,35.7 L12.515875,36.384 C12.2398736,36.1199987 11.9518765,35.8740011 11.651875,35.646 C11.3518735,35.4179989 11.0308767,35.2230008 10.688875,35.061 C10.3468733,34.8989992 9.97487701,34.7700005 9.572875,34.674 C9.17087299,34.5779995 8.73587734,34.53 8.267875,34.53 C7.51187122,34.53 6.80987824,34.6739986 6.161875,34.962 C5.51387176,35.2500014 4.95287737,35.6489975 4.478875,36.159 C4.00487263,36.6690026 3.63287635,37.2659966 3.362875,37.95 C3.09287365,38.6340034 2.957875,39.371996 2.957875,40.164 L2.957875,40.2 C2.957875,40.992004 3.09587362,41.7329966 3.371875,42.423 C3.64787638,43.1130035 4.02287263,43.7129975 4.496875,44.223 C4.97087737,44.7330026 5.53187176,45.1349985 6.179875,45.429 C6.82787824,45.7230015 7.52987122,45.87 8.285875,45.87 C9.19787956,45.87 9.98987164,45.7020017 10.661875,45.366 C11.3338784,45.0299983 11.9878718,44.5440032 12.623875,43.908 L13.253875,44.52 C12.9178733,44.8440016 12.5728768,45.1409987 12.218875,45.411 C11.8648732,45.6810014 11.486877,45.911999 11.084875,46.104 C10.682873,46.296001 10.2478773,46.4459995 9.779875,46.554 C9.31187266,46.6620005 8.80187776,46.716 8.249875,46.716 L8.249875,46.716 Z M41.359875,42.126 L38.047875,34.836 L34.717875,42.126 L41.359875,42.126 Z M37.615875,33.81 L38.515875,33.81 L44.383875,46.5 L43.357875,46.5 L41.755875,42.972 L34.321875,42.972 L32.719875,46.5 L31.747875,46.5 L37.615875,33.81 Z M68.439875,40.938 C69.0278779,40.938 69.5618726,40.8660007 70.041875,40.722 C70.5218774,40.5779993 70.9328733,40.3710014 71.274875,40.101 C71.6168767,39.8309987 71.883874,39.5040019 72.075875,39.12 C72.267876,38.7359981 72.363875,38.3100023 72.363875,37.842 L72.363875,37.806 C72.363875,37.3019975 72.2708759,36.8610019 72.084875,36.483 C71.8988741,36.1049981 71.6378767,35.7900013 71.301875,35.538 C70.9658733,35.2859987 70.5638773,35.0940007 70.095875,34.962 C69.6278727,34.8299993 69.1118778,34.764 68.547875,34.764 L64.983875,34.764 L64.983875,40.938 L68.439875,40.938 Z M64.047875,33.9 L68.619875,33.9 C69.3158785,33.9 69.9488722,33.9869991 70.518875,34.161 C71.0888779,34.3350009 71.5808729,34.5869984 71.994875,34.917 C72.4088771,35.2470017 72.7298739,35.6489976 72.957875,36.123 C73.1858761,36.5970024 73.299875,37.1399969 73.299875,37.752 L73.299875,37.788 C73.299875,38.4480033 73.1678763,39.0299975 72.903875,39.534 C72.6398737,40.0380025 72.2828773,40.4579983 71.832875,40.794 C71.3828728,41.1300017 70.860878,41.3819992 70.266875,41.55 C69.672872,41.7180008 69.0458783,41.802 68.385875,41.802 L64.983875,41.802 L64.983875,46.5 L64.047875,46.5 L64.047875,33.9 Z M93.197875,33.9 L94.133875,33.9 L94.133875,46.5 L93.197875,46.5 L93.197875,33.9 Z M118.495875,34.764 L114.103875,34.764 L114.103875,33.9 L123.823875,33.9 L123.823875,34.764 L119.431875,34.764 L119.431875,46.5 L118.495875,46.5 L118.495875,34.764 Z M152.199875,42.126 L148.887875,34.836 L145.557875,42.126 L152.199875,42.126 Z M148.455875,33.81 L149.355875,33.81 L155.223875,46.5 L154.197875,46.5 L152.595875,42.972 L145.161875,42.972 L143.559875,46.5 L142.587875,46.5 L148.455875,33.81 Z M174.887875,33.9 L175.823875,33.9 L175.823875,45.636 L183.221875,45.636 L183.221875,46.5 L174.887875,46.5 L174.887875,33.9 Z" id="CAPITAL" sketch:type="MSShapeGroup"></path>
            </g>
        </g>
    </g>
</svg>