<?xml version="1.0" encoding="utf-8"?>
<!-- Generator: Adobe Illustrator 19.1.0, SVG Export Plug-In . SVG Version: 6.00 Build 0)  -->
<svg version="1.1" id="Layer_1" xmlns="http://www.w3.org/2000/svg" xmlns:xlink="http://www.w3.org/1999/xlink" x="0px" y="0px"
	 viewBox="0 0 213 41" enable-background="new 0 0 213 41" xml:space="preserve">
<path fill="#FFFFFF" d="M141.9,6.8c-0.8,0-0.8,0.1-0.8,1v3.8c0,0.7,0.1,0.7,1.2,0.7c0.7,0,1.1-0.2,1.5-0.6c0.3-0.3,0.7-1,0.7-2.1
	C144.5,8,143.5,6.8,141.9,6.8z"/>
<path fill="#FFFFFF" d="M166.5,6.8c-0.8,0-0.8,0.1-0.8,1v3.8c0,0.7,0.1,0.7,1.2,0.7c0.7,0,1.1-0.2,1.5-0.6c0.3-0.3,0.7-1,0.7-2.1
	C169,8,168,6.8,166.5,6.8z"/>
<path fill="#FFFFFF" d="M211.7,0H1.5C0.8,0,0.2,0.6,0.2,1.3v22.2c0,0.7,0.6,1.3,1.3,1.3h210.2c0.7,0,1.3-0.6,1.3-1.3V1.3
	C213,0.6,212.4,0,211.7,0z M27.8,18.6c-1.1,0.3-2.5,0.7-4,0.7c-1.9,0-3.9-0.5-5.3-1.5c-1.4-1.1-2.5-2.7-2.5-5.2c0-2.4,1-4.1,2.4-5.2
	c1.4-1.2,3.4-1.8,5.5-1.8c2,0,3.5,0.5,4.1,0.5c0,0.4,0.1,1.9,0.2,3.1c-0.1,0.2-0.6,0.3-0.7,0.1c-0.5-1.8-1.8-2.8-3.7-2.8
	c-2.2,0-4.5,1.9-4.5,5.8c0,3.9,2.3,6,4.6,6c2.4,0,3.5-1.7,4-3.1c0.2-0.2,0.6-0.1,0.7,0.1C28.4,17,28,18.1,27.8,18.6z M51,19.1
	c-1,0-2.9-0.1-4.6-0.1h-2.6c-0.9,0-1.9,0-3.4,0.1c-0.2-0.1-0.2-0.6,0-0.7l0.9-0.1c0.9-0.1,1-0.3,1-2.1V8.8c0-1.8-0.1-1.9-1-2.1
	l-0.5-0.1c-0.2-0.1-0.2-0.6,0-0.7C41.9,6,42.9,6,43.8,6H48c1.3,0,2.4,0,2.6-0.1c0,0.3,0.2,1.7,0.3,3.1c-0.1,0.2-0.5,0.3-0.7,0.1
	c-0.2-0.7-0.5-1.3-0.7-1.6c-0.4-0.4-1-0.6-1.9-0.6h-1.6c-0.7,0-0.7,0-0.7,0.8v3.5c0,0.6,0,0.6,0.6,0.6h1.4c1,0,1.2-0.1,1.5-1.1
	l0.1-0.5c0.1-0.2,0.6-0.2,0.7,0c0,0.6-0.1,1.3-0.1,2.1c0,0.7,0,1.5,0.1,2.1c-0.1,0.2-0.6,0.2-0.7,0l-0.1-0.5
	c-0.2-0.9-0.4-1.1-1.5-1.1h-1.4c-0.5,0-0.6,0-0.6,0.6v2.3c0,0.9,0.1,1.5,0.3,1.9c0.3,0.4,0.6,0.5,2.1,0.5c1.7,0,2.4-0.1,3.5-2.3
	c0.2-0.2,0.7-0.1,0.7,0.1C51.8,16.9,51.3,18.5,51,19.1z M77.9,6.6l-0.4,0.1c-0.5,0.1-0.9,0.2-1.1,0.7c-0.2,0.5-0.3,2-0.3,3.6v4.7
	c0,1.3,0,2.5,0,3.2c-0.1,0.2-0.7,0.5-1.2,0.5c0,0-0.7-1-1.6-2.2l-4.6-5.6c-1.1-1.4-1.8-2.2-2.2-2.5c-0.1,0.2-0.1,0.5-0.1,1.3v3.8
	c0,1.6,0.1,3.1,0.3,3.6c0.2,0.4,0.6,0.5,1.1,0.6l0.6,0.1c0.2,0.2,0.1,0.6,0,0.7C67.6,19,66.8,19,66,19c-0.7,0-1.5,0-2.2,0.1
	c-0.1-0.1-0.2-0.5,0-0.7l0.3-0.1c0.5-0.1,0.9-0.2,1.1-0.7c0.2-0.5,0.3-2,0.3-3.6v-5c0-1.1,0-1.4-0.1-1.7c-0.1-0.3-0.4-0.5-1.1-0.7
	l-0.6-0.1c-0.1-0.2-0.1-0.6,0.1-0.7C64.7,6,65.7,6,66.5,6c0.7,0,1.2,0,1.7-0.1c0.2,0.9,1.5,2.4,3.3,4.5l1.7,2c0.9,1,1.4,1.7,1.9,2.2
	C75,14.4,75,14,75,13.7v-2.7c0-1.6-0.1-3.1-0.3-3.6c-0.2-0.4-0.6-0.5-1.1-0.6l-0.5-0.1c-0.2-0.2-0.1-0.6,0-0.7C74.1,6,74.9,6,75.7,6
	c0.7,0,1.4,0,2.2-0.1C78,6.1,78.1,6.5,77.9,6.6z M101.2,9c-0.1,0.2-0.6,0.2-0.7,0.1c-0.3-1.3-0.6-2.2-2.1-2.2h-1.2
	c-0.5,0-0.5,0.1-0.5,0.6v8.7c0,1.8,0.1,2,1,2.1l0.8,0.1c0.1,0.1,0.1,0.6,0,0.7c-1.3,0-2.3-0.1-3.2-0.1c-0.9,0-2,0-3.4,0.1
	c-0.2-0.1-0.2-0.6,0-0.7l0.9-0.1c0.9-0.1,1-0.3,1-2.1V7.5c0-0.5,0-0.6-0.5-0.6h-1.2c-1.4,0-1.9,0.8-2.4,2.2C89.5,9.3,89.1,9.2,89,9
	c0.4-1.4,0.5-2.6,0.7-3.4c0.1-0.1,0.2-0.1,0.3-0.1s0.2,0,0.3,0.1C90.3,5.9,90.3,6,91.8,6h7.3c1.3,0,1.6,0,1.8-0.4
	c0.1,0,0.1-0.1,0.3-0.1c0.1,0,0.3,0.1,0.3,0.1C101.3,6.3,101.2,7.9,101.2,9z M123.8,19.1c-1,0-2.9-0.1-4.6-0.1h-2.6
	c-0.9,0-1.9,0-3.4,0.1c-0.2-0.1-0.2-0.6,0-0.7l0.9-0.1c0.9-0.1,1-0.3,1-2.1V8.8c0-1.8-0.1-1.9-1-2.1l-0.5-0.1
	c-0.2-0.1-0.2-0.6,0-0.7c0.9,0,1.9,0.1,2.8,0.1h4.2c1.3,0,2.4,0,2.6-0.1c0,0.3,0.2,1.7,0.3,3.1c-0.1,0.2-0.5,0.3-0.7,0.1
	c-0.2-0.7-0.5-1.3-0.7-1.6c-0.4-0.4-1-0.6-1.9-0.6h-1.6c-0.7,0-0.7,0-0.7,0.8v3.5c0,0.6,0,0.6,0.6,0.6h1.4c1,0,1.2-0.1,1.5-1.1
	l0.1-0.5c0.1-0.2,0.6-0.2,0.7,0c0,0.6-0.1,1.3-0.1,2.1c0,0.7,0,1.5,0.1,2.1c-0.1,0.2-0.6,0.2-0.7,0l-0.1-0.5
	c-0.2-0.9-0.4-1.1-1.5-1.1h-1.4c-0.5,0-0.6,0-0.6,0.6v2.3c0,0.9,0.1,1.5,0.3,1.9c0.3,0.4,0.6,0.5,2.1,0.5c1.7,0,2.4-0.1,3.5-2.3
	c0.2-0.2,0.7-0.1,0.7,0.1C124.6,16.9,124.1,18.5,123.8,19.1z M149.8,19c-0.3,0.1-0.9,0.2-1.6,0.2c-1.8,0-3-0.7-3.8-2.1
	c-0.6-1-1.1-2-1.5-3.1c-0.2-0.5-0.6-0.7-1-0.7c-0.7,0-0.7,0-0.7,0.4v2.4c0,1.8,0.1,2,1,2.1l0.5,0.1c0.1,0.1,0.1,0.6,0,0.7
	c-1,0-2-0.1-2.9-0.1c-1,0-1.9,0-2.9,0.1c-0.2-0.1-0.2-0.6,0-0.7l0.5-0.1c0.9-0.2,1-0.3,1-2.1v-7c0-2,0-2.2-0.9-2.3L137,6.8
	c-0.2-0.1-0.2-0.6,0-0.7c1.5-0.1,3-0.2,4.9-0.2c1.7,0,3.1,0.3,3.9,0.7c1.1,0.7,1.7,1.7,1.7,2.9c0,1.8-1.2,2.5-2.1,3
	c-0.2,0.1-0.2,0.2-0.1,0.4c1.3,2.6,2.1,4.1,3.1,4.9c0.5,0.4,1,0.5,1.3,0.6C149.9,18.5,149.9,18.8,149.8,19z M174.3,19
	c-0.3,0.1-0.9,0.2-1.6,0.2c-1.8,0-3-0.7-3.8-2.1c-0.6-1-1.1-2-1.5-3.1c-0.2-0.5-0.6-0.7-1-0.7c-0.7,0-0.7,0-0.7,0.4v2.4
	c0,1.8,0.1,2,1,2.1l0.5,0.1c0.1,0.1,0.1,0.6,0,0.7c-1,0-2-0.1-2.9-0.1c-1,0-1.9,0-2.9,0.1c-0.2-0.1-0.2-0.6,0-0.7l0.5-0.1
	c0.9-0.2,1-0.3,1-2.1v-7c0-2,0-2.2-0.9-2.3l-0.5-0.1c-0.2-0.1-0.2-0.6,0-0.7c1.5-0.1,3-0.2,4.9-0.2c1.7,0,3.1,0.3,3.9,0.7
	c1.1,0.7,1.7,1.7,1.7,2.9c0,1.8-1.2,2.5-2.1,3c-0.2,0.1-0.2,0.2-0.1,0.4c1.3,2.6,2.1,4.1,3.1,4.9c0.5,0.4,1,0.5,1.3,0.6
	C174.4,18.5,174.4,18.8,174.3,19z M198,19.1c-0.9,0-2-0.1-3-0.1c-1,0-1.8,0-2.7,0.1c-0.2-0.1-0.3-0.5,0-0.7l0.6-0.1
	c0.5-0.1,0.5-0.2,0.5-0.3c0-0.1-0.1-0.6-0.4-1.3l-0.5-1.7c-0.1-0.3-0.3-0.4-0.9-0.4h-2.2c-0.5,0-0.5,0-0.7,0.4l-0.7,2.3
	c-0.1,0.4-0.1,0.6-0.1,0.7c0,0.1,0.2,0.2,0.7,0.3l0.6,0.1c0.1,0.1,0.2,0.6,0,0.7c-0.7,0-1.5,0-2.3-0.1c-0.7,0-1.1,0.1-2,0.1
	c-0.2-0.1-0.2-0.5-0.1-0.7l0.5-0.1c0.5-0.1,0.9-0.2,1.2-1c0.4-0.8,0.7-1.7,1.2-3.2l1.8-4.8c0.5-1.2,0.8-1.9,0.8-2.5
	c0.9-0.2,1.7-1.2,1.7-1.2c0.3,0,0.4,0.1,0.5,0.4c0.2,0.6,0.4,1.3,0.9,2.7l2.7,7.7c0.4,1.2,0.6,1.6,1.3,1.8l0.7,0.1
	C198.2,18.5,198.2,19,198,19.1z"/>
<path fill="#FFFFFF" d="M191.4,11.3c-0.3-0.8-0.5-1.7-0.7-2.1c-0.2,0.4-0.5,1.3-0.8,2.2l-0.5,1.5c-0.2,0.5-0.1,0.6,0.4,0.6h1.7
	c0.5,0,0.6-0.1,0.4-0.6L191.4,11.3z"/>
<path fill="#FFFFFF" d="M174.1,36.7c-0.2-0.3-0.2-0.8-0.2-1.2v-6.8l-1.2,0.2c0.3,0.2,0.3,0.7,0.3,1.2v5.5c0,0.4,0,0.9-0.2,1.2H174.1
	z M154.2,36.7c-0.4-0.5-0.3-1.2-0.3-1.9v-2.5c0-0.7-0.7-0.9-1.5-0.9c-0.9,0-2,0.3-2,1c0,0.3,0.2,0.4,0.4,0.4c0.7,0,0.3-1.1,1.4-1.1
	c0.7,0,0.9,0.4,0.9,1c0,0.7-0.2,0.8-0.8,1.1c-0.8,0.4-2.1,0.8-2.1,1.8c0,0.8,0.6,1.3,1.4,1.3c0.8,0,1-0.4,1.3-0.8c0,0,0,0,0.1,0
	c0.1,0,0.1,0.3,0.2,0.7L154.2,36.7z M151.1,35.4c0-0.7,0.4-0.9,1.3-1.3l0.6-0.3V35c0,0.7-0.3,1.3-1,1.3
	C151.4,36.3,151.1,36,151.1,35.4z M129.7,30.2l0,1.4l-0.5,0V32h0.5v3.7c0,0.7,0.3,1.2,1,1.2c0.4,0,1-0.3,1-0.4l0-0.5
	c-0.1,0.1-0.5,0.3-0.7,0.3c-0.5,0-0.5-0.3-0.5-0.7V32h0.2c0.4,0,0.9-0.1,0.9-0.3c0-0.1-0.1-0.1-0.1-0.1h-0.9V30L129.7,30.2z
	 M109.1,30.1l0.5,0.7l0.8-0.5l-0.5-0.8L109.1,30.1z M109.1,31.6c0.2,0.2,0.2,0.4,0.3,0.8v3.1c0,0.4,0,0.9-0.2,1.2h1.3
	c-0.2-0.3-0.2-0.8-0.2-1.2v-4.1L109.1,31.6z M85.9,38.7c0,0.4,0,0.9-0.2,1.2H87c-0.2-0.3-0.2-0.8-0.2-1.2v-1.9h0.4
	c1.6,0,3.1-1.1,3.1-2.8c0-1.2-0.7-2.6-2-2.6c-0.9,0-1.4,0.7-1.5,0.7c0,0,0-0.1,0-0.1v-0.5l-1.1,0.1c0.3,0.3,0.3,1.2,0.3,1.8V38.7z
	 M86.8,33.2c0-0.6,0.2-1.2,0.9-1.2c1,0,1.7,1.1,1.7,2.4c0,1.1-0.6,1.8-1.6,1.8c-1,0-1-0.6-1-1V33.2z M67.3,36.7
	c-0.4-0.5-0.3-1.2-0.3-1.9v-2.5c0-0.7-0.7-0.9-1.5-0.9c-0.9,0-2,0.3-2,1c0,0.3,0.2,0.4,0.4,0.4c0.7,0,0.3-1.1,1.4-1.1
	c0.7,0,0.9,0.4,0.9,1c0,0.7-0.2,0.8-0.8,1.1c-0.8,0.4-2.1,0.8-2.1,1.8c0,0.8,0.6,1.3,1.4,1.3c0.8,0,1-0.4,1.3-0.8c0,0,0,0,0.1,0
	c0.1,0,0.1,0.3,0.2,0.7L67.3,36.7z M64.2,35.4c0-0.7,0.4-0.9,1.3-1.3l0.6-0.3V35c0,0.7-0.3,1.3-1,1.3C64.5,36.3,64.2,36,64.2,35.4z
	 M44.4,29.3c-0.8,0-1.3-0.1-1.9-0.1c-2.3,0-3.7,1.6-3.7,3.9c0,2.1,1.3,3.8,3.4,3.8c1.8,0,2.6-1.1,2.6-1.6v-0.1c-0.3,0.4-1,0.8-2,0.8
	c-1.9,0-2.8-1.4-2.8-3.2c0-1.6,0.7-3.1,2.5-3.1c1.2,0,1.6,0.5,1.9,1h0L44.4,29.3z"/>
</svg>
