<?xml version="1.0" encoding="utf-8"?>
<!-- Generator: Adobe Illustrator 18.1.1, SVG Export Plug-In . SVG Version: 6.00 Build 0)  -->
<svg version="1.1" id="Layer_1" xmlns="http://www.w3.org/2000/svg" xmlns:xlink="http://www.w3.org/1999/xlink" x="0px" y="0px"
	 viewBox="0 0 182.3 46.1" enable-background="new 0 0 182.3 46.1" xml:space="preserve">
<path fill-rule="evenodd" clip-rule="evenodd" d="M170.2,4.6c0.1,1.2,0.7,3.3,1,4.2l1.6,4.2h-5.6l1.5-4.1c0.4-1,1.1-3.1,1.2-4.3
	H170.2z M181.9,21.9c-0.1-0.8-0.2-2-0.5-2.8c-0.4-0.2-1.1-0.4-1.6-0.4l-7.5-18.4h-3.4L161,18.7c-0.4,0.1-1.1,0.3-1.4,0.4
	c-0.3,0.8-0.6,1.8-0.7,2.7h8.5c0-0.8-0.2-2.1-0.5-2.7c-0.5-0.1-1.4-0.3-2.1-0.4c0.4-0.5,0.7-1.4,0.9-2l0.4-1h7.7l0.3,0.8
	c0.3,0.7,0.6,1.4,1.1,2c-0.5,0.1-1.4,0.3-1.9,0.5c-0.3,0.7-0.7,2-0.7,2.7H181.9z M143.1,3.3c0.4-0.1,1.1-0.1,1.7-0.1
	c2.6,0,4.5,1.3,4.5,3.6c0,2.5-1.7,3.5-3.7,3.5c-0.8,0-1.9-0.1-2.5-0.2V3.3z M138.5,18.7c-0.5,0.1-1.6,0.3-2.1,0.5
	c-0.3,0.6-0.5,2-0.6,2.7h9.6c0.1-0.6,0.1-2.1-0.1-2.8c-0.6-0.2-1.5-0.4-2.2-0.4v-5.8c0.6,0.1,1.4,0.2,2.3,0.2
	c1.8,3.8,4.8,8.5,5.9,9.3c1-0.1,3.1-0.4,4-0.7c0.4-0.7,0.7-2.2,0.6-3.1l-1.6,0.2c-0.9-0.5-3-3.3-4.7-6.4c2.4-0.9,4.3-2.9,4.3-5.7
	c0-4.4-3.7-6.3-8.7-6.3c-2.7,0-6.4,0.2-8.8,0.4c-0.1,0.8-0.1,2.2,0.1,2.9c0.5,0.1,1.4,0.2,2,0.2V18.7z M119.7,3.3
	c0.4-0.1,1.1-0.1,1.7-0.1c2.6,0,4.5,1.3,4.5,3.6c0,2.5-1.7,3.5-3.7,3.5c-0.8,0-1.9-0.1-2.5-0.2V3.3z M115.1,18.7
	c-0.5,0.1-1.6,0.3-2.1,0.5c-0.3,0.6-0.5,2-0.6,2.7h9.6c0.1-0.6,0.1-2.1-0.1-2.8c-0.6-0.2-1.5-0.4-2.2-0.4v-5.8
	c0.6,0.1,1.4,0.2,2.3,0.2c1.8,3.8,4.8,8.5,5.9,9.3c1-0.1,3.1-0.4,4-0.7c0.4-0.7,0.7-2.2,0.6-3.1l-1.6,0.2c-0.9-0.5-3-3.3-4.7-6.4
	c2.4-0.9,4.3-2.9,4.3-5.7c0-4.4-3.7-6.3-8.7-6.3c-2.7,0-6.4,0.2-8.8,0.4c-0.1,0.8-0.1,2.2,0.1,2.9c0.5,0.1,1.4,0.2,2,0.2V18.7z
	 M108.2,21.9v-5.8c-1,0-2.7,0.2-3.6,0.5c-0.2,0.7-0.3,1.6-0.4,2.4h-6v-6.6h4.6c0,0.4,0.2,1,0.3,1.4c0.9,0.3,2.3,0.3,3.3,0.2V7.9
	c-1.1,0-2.4,0.2-3.3,0.4c-0.1,0.4-0.2,1-0.3,1.3h-4.7V3.4h5.9c0.1,0.6,0.2,1.6,0.4,2.2c0.9,0.3,2.4,0.5,3.4,0.5V0.6H91.6
	c-0.2,0.6-0.1,2.1,0,2.8c0.5,0.1,1.3,0.3,2,0.4v15C93,18.8,92,19,91.5,19.2c-0.3,0.6-0.5,2-0.6,2.7H108.2z M80.4,3.4h3.3
	c0.1,0.7,0.2,1.9,0.4,2.5c1,0.3,2.4,0.4,3.5,0.4V0.6H68.6v5.7c1,0,2.4-0.1,3.5-0.4c0.2-0.6,0.3-1.8,0.4-2.4h3.3v15.3
	c-0.7,0.1-1.9,0.3-2.5,0.5c-0.3,0.6-0.7,1.9-0.7,2.7h10.9c0.1-0.6,0.1-2.1-0.2-2.8c-0.8-0.2-2-0.4-3-0.4V3.4z M51.6,0.6h-7.7
	c-0.2,0.6-0.1,2.1,0,2.8c0.5,0.1,1.4,0.3,2,0.4v15c-0.5,0.1-1.4,0.3-1.9,0.5c-0.2,0.6-0.5,2-0.5,2.7h8.4c0.1-0.6,0.1-2.1-0.1-2.8
	c-0.6-0.2-1.5-0.4-2.2-0.4v-14h0.4c0.2,1.3,0.9,3.1,1.5,4.3l7.3,13.1h4.7V3.7c0.5,0,1.6-0.2,2-0.3c0.2-0.6,0.2-2.2,0.1-2.8h-7.6
	c-0.1,0.6-0.1,2.1,0,2.8c0.5,0.1,1.5,0.3,2.2,0.4v13.1h-0.4c-0.3-1.5-0.8-3.1-1.5-4.5L51.6,0.6z M39,21.9v-5.8c-1,0-2.7,0.2-3.6,0.5
	C35.2,17.2,35,18.2,35,19h-6v-6.6h4.6c0,0.4,0.2,1,0.3,1.4c0.9,0.3,2.3,0.3,3.3,0.2V7.9c-1.1,0-2.4,0.2-3.3,0.4
	c-0.1,0.4-0.2,1-0.3,1.3H29V3.4h5.9C35,4,35.1,5,35.3,5.6C36.2,5.9,37.6,6,38.7,6V0.6H22.4c-0.2,0.6-0.1,2.1,0,2.8
	c0.5,0.1,1.4,0.3,2,0.4v15c-0.5,0.1-1.6,0.3-2.1,0.5c-0.3,0.6-0.5,2-0.6,2.7H39z M13.2,6.4c0.9,0.5,2.6,0.9,3.7,0.9
	c0.3-1.5,0.6-4,0.6-5.8C15.8,0.6,13.6,0,11.3,0C5.1,0,0,4.3,0,11.4c0,6.4,4,11,10.1,11c2.3,0,4.7-0.7,6.5-1.6
	c0.5-0.8,0.8-2.2,0.7-3.1c-2,0.7-4.6,1.1-6.1,1.1c-3.6,0-6.2-2.5-6.2-8c0-5.4,2.6-8,6.1-8c0.8,0,1.5,0.2,2.2,0.5V6.4z"/>
<path fill-rule="evenodd" clip-rule="evenodd" d="M173.9,33.3h0.9V45h7.4v0.9h-8.3V33.3z M147.5,33.2h0.9l5.9,12.7h-1l-1.6-3.5h-7.4
	l-1.6,3.5h-1L147.5,33.2z M151.2,41.5l-3.3-7.3l-3.3,7.3H151.2z M117.5,34.1h-4.4v-0.9h9.7v0.9h-4.4v11.7h-0.9V34.1z M92.2,33.3h0.9
	v12.6h-0.9V33.3z M63.1,33.3h4.6c0.7,0,1.3,0.1,1.9,0.3c0.6,0.2,1.1,0.4,1.5,0.8c0.4,0.3,0.7,0.7,1,1.2s0.3,1,0.3,1.6v0
	c0,0.7-0.1,1.2-0.4,1.7c-0.3,0.5-0.6,0.9-1.1,1.3s-1,0.6-1.6,0.8c-0.6,0.2-1.2,0.3-1.9,0.3H64v4.7h-0.9V33.3z M67.5,40.3
	c0.6,0,1.1-0.1,1.6-0.2c0.5-0.1,0.9-0.4,1.2-0.6c0.3-0.3,0.6-0.6,0.8-1c0.2-0.4,0.3-0.8,0.3-1.3v0c0-0.5-0.1-0.9-0.3-1.3
	c-0.2-0.4-0.4-0.7-0.8-0.9c-0.3-0.3-0.7-0.4-1.2-0.6c-0.5-0.1-1-0.2-1.5-0.2H64v6.2H67.5z M36.7,33.2h0.9l5.9,12.7h-1l-1.6-3.5h-7.4
	l-1.6,3.5h-1L36.7,33.2z M40.4,41.5l-3.3-7.3l-3.3,7.3H40.4z M7.3,46.1c-0.9,0-1.7-0.2-2.5-0.5c-0.8-0.3-1.4-0.8-2-1.4
	c-0.6-0.6-1-1.3-1.3-2.1C1.2,41.4,1,40.5,1,39.6v0c0-0.9,0.2-1.7,0.5-2.5c0.3-0.8,0.8-1.5,1.3-2.1c0.6-0.6,1.2-1.1,2-1.4
	c0.8-0.3,1.6-0.5,2.5-0.5c0.6,0,1.1,0,1.5,0.1c0.5,0.1,0.9,0.2,1.3,0.4c0.4,0.2,0.8,0.4,1.1,0.6c0.3,0.2,0.7,0.5,1,0.8l-0.7,0.7
	c-0.3-0.3-0.6-0.5-0.9-0.7c-0.3-0.2-0.6-0.4-1-0.6C9.4,34.3,9,34.1,8.6,34s-0.8-0.1-1.3-0.1c-0.8,0-1.5,0.1-2.1,0.4
	C4.6,34.6,4,35,3.5,35.5C3,36,2.7,36.6,2.4,37.3S2,38.7,2,39.5v0c0,0.8,0.1,1.5,0.4,2.2s0.7,1.3,1.1,1.8c0.5,0.5,1,0.9,1.7,1.2
	c0.6,0.3,1.3,0.4,2.1,0.4c0.9,0,1.7-0.2,2.4-0.5c0.7-0.3,1.3-0.8,2-1.5l0.6,0.6c-0.3,0.3-0.7,0.6-1,0.9c-0.4,0.3-0.7,0.5-1.1,0.7
	c-0.4,0.2-0.8,0.3-1.3,0.5C8.3,46,7.8,46.1,7.3,46.1z"/>
</svg>
