<?xml version="1.0" encoding="utf-8"?>
<!-- Generator: Adobe Illustrator 19.1.0, SVG Export Plug-In . SVG Version: 6.00 Build 0)  -->
<svg version="1.1" id="Layer_1" xmlns="http://www.w3.org/2000/svg" xmlns:xlink="http://www.w3.org/1999/xlink" x="0px" y="0px"
	 viewBox="0 0 96.7 80.6" enable-background="new 0 0 96.7 80.6" xml:space="preserve">
<g>
	<g>
		<path fill="#FFFFFF" d="M13.5,36.3l-3.5-0.5l0.1-0.6c0.3-2.3-0.3-3.6-1.9-3.8c-1.4-0.2-2.4,0.8-2.7,2.8l-0.7,4.4l0.5,0.1l0.1-0.8
			l7.7,1.1L13,39.8l0.5,0.1l0.6-4.2l-0.5-0.1L13.5,36.3z M5.9,34.8c0.1-1,0.8-1,2.1-0.8c1.4,0.2,1.6,0.7,1.5,1.5l0,0.2l-3.6-0.5
			L5.9,34.8z"/>
		<path fill="#FFFFFF" d="M17.2,23.8L16.8,24l0.1,0.1c0.1,0.2,0.3,0.4,0.3,0.5c0,0.1-0.1,0.1-0.1,0.1c-0.1,0-0.3,0-0.6-0.1l-1.6-0.7
			c-0.8-0.3-1.5,0-2.1,0.8c0.1-0.9-0.2-1.9-1.1-2.3c-1.4-0.6-2.6,0.5-3.1,1.7l-1.9,4.5L7,28.8l0.3-0.7l7.1,3l-0.3,0.7l0.4,0.2
			l1.7-3.9L15.8,28l-0.3,0.7L12,27.2l0.3-0.7c0.2-0.6,0.7-0.6,1.6-0.2l1.2,0.5c1,0.4,1.9,0,2.3-1C17.7,25,17.8,24.4,17.2,23.8
			L17.2,23.8z M9.2,24.6c0.3,0,0.8,0.1,1.5,0.3c0.6,0.2,0.9,0.5,1,0.7c0.2,0.3,0.2,0.6,0,1L11.6,27l-3.2-1.4l0.2-0.5
			C8.7,24.8,8.9,24.6,9.2,24.6z"/>
		<polygon fill="#FFFFFF" points="19.8,21.1 13.5,16.6 13.9,16 13.5,15.7 11.1,19.2 11.5,19.5 11.9,18.8 18.2,23.3 17.8,23.9 
			18.2,24.2 20.6,20.7 20.2,20.5 		"/>
		<path fill="#FFFFFF" d="M27.4,13.6l-5.1-5.8l0.6-0.5l-0.3-0.4L20,9.2l2,4.9l-4.6-2.6l-2.6,2.3l0.3,0.4l0.6-0.5l4.7,5.3
			c0.3,0.4,0.3,0.6-0.1,0.9L20.1,20l0.3,0.4l1.6-1.4l-0.3-0.4l-0.1,0.1c-0.2,0.2-0.4,0.3-0.5,0.3c0,0,0,0,0,0
			c-0.1,0-0.3-0.1-0.4-0.3l-4-4.5l6.5,3.6l0.1,0l0.5-0.4L21,10.3l4.5,5l-0.6,0.5l0.3,0.4l3.1-2.8L28,13.1L27.4,13.6z"/>
		<path fill="#FFFFFF" d="M33.5,8.1l0,0.1c0.4,1.4,0.3,2.3-1.5,3.1l-0.7,0.3l-1.6-3.4l0.8-0.4c0.4-0.2,0.7-0.2,1,0
			c0.2,0.1,0.5,0.4,0.6,0.8l0.1,0.1l0.4-0.2l-1.5-3.2l-0.4,0.2l0.1,0.1c0.2,0.4,0.3,0.7,0.2,1C31,7,30.8,7.2,30.4,7.4l-0.8,0.4
			l-1.5-3.1l0.8-0.4c1.6-0.8,2.3-0.1,2.8,0.7L31.8,5l0.4-0.2l-1-2.2l-6.3,3l-0.1,0.1L25,6.1l0.7-0.3l3.3,7l-0.7,0.3l0.2,0.4l6.5-3.1
			l0.1-0.1l-1.2-2.5L33.5,8.1z"/>
		<path fill="#FFFFFF" d="M42.5,3.1c-1.2-0.1-1.9-0.2-2-1.1c0-0.4,0.1-0.7,0.3-1s0.6-0.4,0.9-0.5c1.6-0.1,2.4,1.4,2.5,2l0,0.1l0.5,0
			l-0.2-2.5l-0.5,0l0,0.1c0,0.1,0,0.2,0,0.2c0,0-0.1,0.1-0.2,0.1c-0.1,0-0.3-0.1-0.4-0.1c-0.4-0.2-0.9-0.4-1.7-0.3
			c-1.7,0.1-2.8,1.4-2.6,3.1c0.2,2.3,1.8,2.4,3.2,2.5c1.2,0.1,2,0.2,2,1.2c0,0.6-0.2,1-0.5,1.2c-0.3,0.3-0.8,0.5-1.2,0.5
			c-1.5,0.1-2.5-1.4-2.6-2.3l0-0.1l-0.5,0l0.2,2.8l0.5,0l0-0.1c0,0,0-0.3,0.3-0.3c0.2,0,0.4,0.1,0.6,0.2c0.4,0.2,0.9,0.4,1.7,0.3
			c1-0.1,1.8-0.5,2.3-1.1c0.5-0.6,0.7-1.4,0.6-2.3C45.6,3.4,43.9,3.2,42.5,3.1z"/>
		<polygon fill="#FFFFFF" points="56.1,1.9 56.8,2 56.9,1.5 52.7,0.8 52.7,1.3 53.4,1.4 52.8,4.8 50.7,4.5 51.3,1.1 52.1,1.2 
			52.2,0.7 48,0 47.9,0.5 48.7,0.6 47.4,8.2 46.6,8.1 46.5,8.6 50.7,9.3 50.8,8.8 50,8.7 50.7,4.9 52.7,5.3 52.1,9 51.3,8.9 
			51.3,9.4 55.4,10.1 55.5,9.6 54.8,9.5 		"/>
		<polygon fill="#FFFFFF" points="61.9,4.1 62.7,4.4 62.8,4 58.9,2.4 58.7,2.8 59.4,3.1 56.5,10.3 55.8,10 55.6,10.4 59.5,12 
			59.7,11.6 59,11.3 		"/>
		<path fill="#FFFFFF" d="M71.4,9.9l0.1,0.1l0.3-0.4L70,8.3l-0.3,0.4l0.1,0.1c0.2,0.2,0.4,0.3,0.4,0.5c0,0.1,0,0.3-0.1,0.5l-2.6,3.9
			l-0.1-7.1l-2.7-1.8l-0.3,0.4l0.3,0.2l0,1.1l-3.4,5C61,12,60.7,12,60.2,11.6l-0.1-0.1l-0.3,0.4l2,1.4l0.3-0.4l-0.1-0.1
			c-0.3-0.2-0.4-0.3-0.5-0.5c0-0.1,0-0.3,0.2-0.6l3-4.4l0.1,8l1.4,1l4.2-6.3C70.8,9.7,71,9.6,71.4,9.9z"/>
		<path fill="#FFFFFF" d="M73.4,11.1l-0.4,0.3l0.5,0.6l-5.8,5.1l-0.5-0.6l-0.4,0.3l4.9,5.5l2.1-1.8l-0.3-0.3l-0.1,0.1
			c-1.2,0.7-2.1,0.9-3.4-0.5l-0.5-0.6l2.8-2.5l0.6,0.7c0.5,0.6,0.4,1.2-0.3,1.8l-0.1,0.1l0.3,0.4l2.6-2.3l-0.3-0.4l-0.1,0.1
			c-0.3,0.3-0.6,0.4-0.9,0.5c-0.3,0-0.6-0.1-0.9-0.4l-0.6-0.7l2.6-2.3l0.6,0.7c1.2,1.3,0.7,2.2,0.1,2.9L76,17.6l0.3,0.3l1.8-1.6
			L73.4,11.1z"/>
	</g>
	<g>
		<path fill="#FFFFFF" d="M28.8,71.1c0.1,0.4-0.1,0.7-0.5,0.8l-1,0.3l-0.4-1.2l1-0.3C28.3,70.6,28.7,70.8,28.8,71.1z M76.6,58.2
			c0.9-0.3,1.2-1.1,0.9-2c-0.3-0.9-1-1.3-1.9-1.1c-0.9,0.3-1.2,1.1-0.9,2C75,58,75.8,58.5,76.6,58.2z M32.3,69.3l-1,0.3l0.4,1.2
			l1-0.3c0.4-0.1,0.6-0.5,0.5-0.9C33.1,69.3,32.7,69.2,32.3,69.3z M95.3,42.9L91.9,44c-0.2,0.1-0.4,0.1-0.6,0.1
			c-0.4,0-0.7-0.1-1.1-0.3c-0.5-0.3-0.8-0.8-0.9-1.4L89,40.2c0,0-0.1,0-0.2,0c-0.2,0-0.3,0.1-0.5,0.1c-0.2,0-0.3,0-0.5-0.1l0.4,3.1
			c0.1,1-0.4,1.9-1.4,2.2l-3.5,1.1c-0.2,0.1-0.4,0.1-0.6,0.1c-0.4,0-0.8-0.1-1.1-0.3c-0.2-0.1-0.4-0.3-0.5-0.5
			c-0.1,0.2-0.3,0.4-0.4,0.6c-1.1,1.6-2.7,2.7-4.8,3.3c-1,0.3-2,0.5-3,0.5c-0.3,0-0.7,0-1-0.1c-0.2,0.6-0.7,1-1.3,1.2l-0.3,0.1
			c-0.2,0.6-0.4,1.1-0.7,1.7l16.6-5.3L88,59.1L21.6,80.6l-0.4-12.1L32,65.3c-0.9-0.5-1.7-1.1-2.5-1.8c-0.1,0-0.3,0.1-0.4,0.1
			c-0.2,0.1-0.3,0.2-0.5,0.2L25,65c-0.2,0.1-0.4,0.1-0.6,0.1c-0.6,0-1.2-0.3-1.6-0.8c-0.2,0.3-0.6,0.5-1,0.6c-0.2,0-0.4,0.1-0.5,0.1
			c-0.3,0-0.7-0.1-1-0.3L20,65.5c-0.2,0.7-0.7,1.2-1.3,1.4l-3.5,1.1c-0.2,0.1-0.4,0.1-0.6,0.1c-0.2,0-0.3,0-0.5-0.1
			c-0.2,0.2-0.5,0.3-0.6,0.4c-0.3,0.2-0.6,0.4-1,0.6c-0.5,0.2-0.9,0.4-1.4,0.6c-0.9,0.3-1.9,0.4-2.8,0.4c-0.3,0-0.5,0-0.8,0
			C6.3,70,5.1,69.6,4.1,69c-2.2-1.2-3.5-3.3-4-6.2c-0.2-1.2-0.2-2.5,0.1-3.7c0.3-1.2,0.7-2.4,1.4-3.5c0.7-1.1,1.5-2.1,2.6-3
			c1-0.8,2.2-1.5,3.4-1.8c0.9-0.3,1.9-0.4,2.9-0.4c0.4,0,0.8,0,1.2,0.1c0.6,0.1,1.1,0.4,1.4,0.8c0.3,0.5,0.4,1,0.3,1.6l-0.9,3.7
			c-0.2,0.9-1,1.5-1.9,1.5c-0.1,0-0.2,0-0.3,0c-0.1,0-0.2,0-0.3,0c-0.2,0-0.4,0-0.6,0.1c-0.6,0.2-1,0.5-1.3,1
			c-0.3,0.6-0.5,1.2-0.4,1.8c0.1,0.8,0.4,1,0.5,1.1c0.1,0.1,0.3,0.1,0.5,0.1c0.2,0,0.4,0,0.6-0.1c0.3-0.1,0.6-0.3,0.9-0.5
			c0.4-0.3,0.8-0.5,1.3-0.5c0.1,0,0.2,0,0.3,0c0.6,0.1,1.1,0.5,1.4,1c0,0,0,0,0,0.1l3.1-13c-0.5-2.1-0.7-4.3-0.7-6.5
			C15.8,26.4,29.2,13,45.6,13c12.1,0,22.5,7.2,27.2,17.6c0.1,0,0.2-0.1,0.2-0.1c0.9-0.3,1.8-0.4,2.8-0.5c0.1,0,0.3,0,0.4,0
			c0.9,0,1.7,0.1,2.4,0.3c0,0,0.1,0,0.1,0c0.1-0.7,0.6-1.3,1.4-1.6l3.5-1.1c0.2-0.1,0.4-0.1,0.6-0.1c0.4,0,0.8,0.1,1.1,0.3
			c0.5,0.3,0.8,0.8,0.9,1.4l0.5,3.1l1.1-0.4l-0.5-3.7c-0.1-1,0.4-1.9,1.4-2.2l3.5-1.1c0.2-0.1,0.4-0.1,0.6-0.1
			c0.4,0,0.7,0.1,1.1,0.3c0.5,0.3,0.8,0.8,0.9,1.4l2.1,14C96.9,41.7,96.3,42.6,95.3,42.9z M16.8,42.8c0,1.5,0.1,3.1,0.4,4.6
			c0.3-0.4,0.7-0.7,1.2-0.8c0.1,0,0.2,0,0.4,0c0.3,0,0.5,0.1,0.8,0.2c-0.2-1.3-0.3-2.6-0.3-4c0-14.6,11.8-26.4,26.4-26.4
			c10.9,0,20.2,6.6,24.2,16c0.6-0.6,1.3-1.1,2-1.4c-4.5-10-14.6-17-26.2-17C29.8,14,16.8,26.9,16.8,42.8z M29.9,70.8
			c-0.3-0.8-1-1.3-2-1l-2.2,0.7l1.5,4.6l1-0.3l-0.5-1.7l1.2-0.4C29.8,72.5,30.1,71.6,29.9,70.8z M35.3,72.5l-1.6-1.4
			c0.5-0.3,0.8-0.9,0.6-1.7c-0.3-0.9-1.1-1.3-2-1L30,69.1l1.5,4.6l1-0.3l-0.5-1.6l0.7-0.2l1.4,1.3L35.3,72.5z M37,72l-1.5-4.6
			l-1,0.3l1.5,4.6L37,72z M42.9,70l-1.5-4.6L40,65.9l-0.2,3.3l-2.1-2.5L36.4,67l1.5,4.6l1-0.3L37.8,68l2.4,2.9l0.4-0.1l0.2-3.8
			l1.1,3.3L42.9,70z M47.1,68.7l-0.3-0.9l-2.3,0.7l-0.3-1.1l2.2-0.7l-0.3-0.9l-2.2,0.7l-0.3-1l2.3-0.7L45.6,64l-3.3,1.1l1.5,4.6
			L47.1,68.7z M50.9,65.9c-0.6-1.7-3.1-0.4-3.3-1.1c-0.1-0.3,0.1-0.5,0.5-0.7c0.5-0.2,1-0.2,1.5,0.1l0.3-0.9c-0.6-0.3-1.3-0.3-2-0.1
			c-1.1,0.4-1.5,1.2-1.3,2c0.6,1.7,3.1,0.3,3.3,1.1c0.1,0.3-0.1,0.6-0.6,0.8c-0.6,0.2-1.2,0.1-1.7-0.2l-0.3,0.9
			c0.6,0.3,1.3,0.4,2.2,0.1C50.8,67.6,51.2,66.7,50.9,65.9z M56.2,65.7l-1.5-4.6l-1,0.3l0.6,1.8l-2.2,0.7l-0.6-1.8l-1,0.3l1.5,4.6
			l1-0.3l-0.6-2l2.2-0.7l0.6,2L56.2,65.7z M58.1,65.1l-1.5-4.6l-1,0.3l1.5,4.6L58.1,65.1z M63.2,63.5l-1.5-4.6l-1,0.3l0.9,2.9
			l-3.1-2.2l-1,0.3l1.5,4.6l1-0.3l-1-3l3.2,2.3L63.2,63.5z M67.4,62.1l-0.3-0.9L64.8,62l-0.3-1.1l2.2-0.7l-0.3-0.9L64.2,60l-0.3-1
			l2.3-0.7l-0.3-0.9l-3.3,1.1l1.5,4.6L67.4,62.1z M69,61c-0.1-0.3-0.4-0.5-0.7-0.4c-0.3,0.1-0.5,0.4-0.4,0.7
			c0.1,0.3,0.4,0.5,0.7,0.4C68.9,61.7,69.1,61.3,69,61z M78.5,53.3L80,58l1-0.3l-1.1-3.3l2.4,2.9l0.4-0.1l0.2-3.8l1.1,3.3l1-0.3
			l-1.5-4.6l-1.4,0.5l-0.2,3.3l-2.1-2.5L78.5,53.3z M73.7,57.5c0.5,1.4,1.8,2.1,3.2,1.6c1.4-0.5,2.1-1.8,1.6-3.2
			c-0.5-1.4-1.8-2.1-3.2-1.6C74,54.7,73.3,56.1,73.7,57.5z M68.9,59c0.5,1.4,1.9,2,3.3,1.6c1-0.3,1.4-1.1,1.6-1.8l-1-0.1
			c-0.1,0.4-0.4,0.9-0.9,1c-0.8,0.3-1.7-0.2-2-1c-0.3-0.9,0.1-1.7,1-2c0.5-0.2,1,0,1.3,0.3l0.7-0.7c-0.5-0.5-1.3-0.8-2.3-0.5
			C69.2,56.3,68.5,57.6,68.9,59z M7.9,52.8c-1,0.3-1.9,0.8-2.7,1.5c-0.9,0.7-1.6,1.5-2.1,2.4c-0.5,0.9-0.9,1.8-1.1,2.9
			c-0.2,1-0.2,2-0.1,3c0.3,2.2,1.3,3.8,3,4.7c0.8,0.5,1.7,0.7,2.6,0.8c0.9,0.1,1.9,0,2.8-0.3c0.3-0.1,0.7-0.3,1.1-0.4
			c0.4-0.2,0.7-0.3,0.9-0.5c0.2-0.1,0.6-0.4,1.1-0.7c0,0-1.4-2.1-1.9-2.9c-0.5,0.4-1,0.8-1.6,0.9c-1.1,0.3-2,0.3-2.8-0.3
			c-0.8-0.5-1.3-1.3-1.4-2.5c-0.2-1.1,0.1-2.2,0.6-3.1c0.6-1,1.4-1.6,2.4-2c0.6-0.2,1.2-0.2,1.8-0.1l0.9-3.7
			C10,52.3,8.9,52.4,7.9,52.8z M24.1,63.1l3.5-1.1l-9.1-13.4l-4.2,17.6l3.5-1.1l0.9-3.9L21,63l1-3.1L24.1,63.1z M18.9,59.5l0.9-3.9
			l1.9,3.1L18.9,59.5z M66.3,50.7l3.7-1.2l-9.5-14L56,53.9l3.7-1.1l1-4.1l2.3,1.9l1.1-3.2L66.3,50.7z M60.8,46.9l0.9-4.1l2,3.2
			L60.8,46.9z M36.7,51.7c0.4-0.9,0.5-1.8,0.4-2.9c-0.2-1.4-0.8-2.4-1.8-2.8c-1-0.5-2.1-0.5-3.5,0l-5.2,1.6l2.1,14l3.5-1.1l-0.8-5.4
			l0,0l5.4,4.3l2.6-2.7l-4.7-3C35.6,53.3,36.3,52.6,36.7,51.7z M30.8,49.2c0.3-0.1,0.6-0.2,0.9-0.2c0.3,0,0.5,0,0.8,0
			c0.3,0,0.5,0.2,0.7,0.4s0.3,0.5,0.3,0.8c0.1,0.4,0,0.7-0.1,1c-0.1,0.3-0.3,0.5-0.5,0.7c-0.2,0.2-0.5,0.3-0.7,0.5
			c-0.2,0.1-0.5,0.2-0.9,0.3L31,52.8l-0.5-3.5L30.8,49.2z M37.1,44.5L44.8,57l2.3-10.1l0,0l5.8,8.3l2.6-16.5l-3.6-0.6l-0.8,8.5
			l-5.5-6.3l-2.1,7.4l-3.7-6.5L37.1,44.5z M75.7,32.1c-0.8,0-1.6,0.2-2.3,0.4c-1.4,0.4-2.5,1.2-3.3,2.4c-0.8,1.2-1,2.5-0.8,4
			c0,0.3,0.1,0.6,0.2,0.8c0.1,0.3,0.2,0.5,0.3,0.7c0.1,0.2,0.2,0.4,0.4,0.5c0.1,0.2,0.3,0.3,0.4,0.4c0.1,0.1,0.3,0.2,0.5,0.3
			s0.4,0.1,0.6,0.2c0.2,0,0.4,0.1,0.6,0.1c0.3,0,0.5,0,0.7,0c0.2,0,0.5,0,0.8,0c0,0,0.1,0,0.1,0c0.2,0,0.4,0,0.5,0
			c0.1,0,0.3,0,0.6,0c0.2,0,0.4,0.1,0.6,0.1c0.1,0.1,0.3,0.2,0.4,0.3c0.1,0.1,0.2,0.3,0.2,0.5c0.1,0.5-0.1,0.9-0.4,1.3
			c-0.3,0.4-0.7,0.6-1.2,0.8c-1,0.3-2.2,0.2-3.4-0.5l-1.1,3.5c1.7,0.6,3.4,0.7,5.1,0.1c1.6-0.5,2.8-1.4,3.7-2.6
			c0.8-1.2,1.1-2.6,0.9-4.4c-0.2-1.1-0.6-1.9-1.3-2.3c-0.7-0.4-1.6-0.6-2.7-0.6l-1,0c-0.2,0-0.4,0-0.6,0c-0.1,0-0.3,0-0.5-0.1
			c-0.2-0.1-0.4-0.1-0.5-0.3c-0.1-0.1-0.2-0.3-0.2-0.5c-0.1-0.4,0.1-0.7,0.4-1c0.3-0.3,0.6-0.5,1-0.7c0.9-0.3,1.7-0.2,2.5,0.2l1-3.4
			C77.2,32.1,76.5,32,75.7,32.1z M84,29.6l-3.5,1.1l2.1,14l3.5-1.1l-1-7.2l3.1,1.8l1.9-3.4l1,7.2l3.5-1.1l-2.1-14L89,28.1l0.8,5.4
			l-5,1.6L84,29.6z"/>
	</g>
</g>
</svg>
