<?xml version="1.0" encoding="utf-8"?>
<!-- Generator: Adobe Illustrator 19.0.0, SVG Export Plug-In . SVG Version: 6.00 Build 0)  -->
<svg version="1.1" id="Layer_1" xmlns:sketch="http://www.bohemiancoding.com/sketch/ns"
	 xmlns="http://www.w3.org/2000/svg" xmlns:xlink="http://www.w3.org/1999/xlink" x="0px" y="0px" viewBox="-303 283 141.2 47"
	 style="enable-background:new -303 283 141.2 47;" xml:space="preserve">
<style type="text/css">
	.st0{fill:#FFFFFF;}
</style>
<g>
	<title>CENTERRA + CAPITAL</title>
	<desc>Created with Sketch.</desc>
	<path class="st0" d="M-293.2,307.4c1.9,0,3.9-0.4,5.6-1.1v2c-1.9,0.7-3.9,1.1-5.9,1.1c-4.3,0-9.4-1.7-9.4-10.4
		c0-8.6,5.1-10.4,9.4-10.4c2,0,4,0.4,5.9,1.1v2c-1.8-0.7-3.7-1.1-5.6-1.1c-4.6,0-7.6,2.1-7.6,8.4
		C-300.8,305.3-297.7,307.4-293.2,307.4z"/>
	<path class="st0" d="M-266.5,299.1c0,0.9,0,1,0,1.1H-282c0,0.7,0.2,1.3,0.4,1.8c0.6,3.9,3.3,5.4,7.2,5.4c2.4,0,4.9-0.5,6.6-1.4v2.1
		c-1.9,0.9-4.4,1.3-6.7,1.3c-4.6,0-9.5-2-9.5-10c0-3.2,1-10.8,9-10.8C-266.6,288.5-266.5,297.7-266.5,299.1z M-282,298.3h13.4
		c0-1-0.2-7.8-6.7-7.8C-279.6,290.5-281.8,293.4-282,298.3z"/>
	<path class="st0" d="M-245,295.9V309h-2.1v-13.1c0-2.9-1.2-5.3-5.9-5.3c-2.4,0-4.7,0.6-6.4,1.3V309h-2v-18.4
		c1.4-0.7,4.7-2.2,8.6-2.2C-247.9,288.5-245,291-245,295.9z"/>
	<path class="st0" d="M-230,307v2c-0.8,0.2-1.7,0.4-2.7,0.4c-1.5,0-5.3-0.2-5.3-5.2v-13.4h-3.2v-1.8h3.2v-5.7h2.1v5.7h5.8v1.8h-5.8
		V304c0,2.7,1.6,3.4,3.4,3.4C-231.5,307.4-230.7,307.2-230,307z"/>
	<path class="st0" d="M-209.3,299.1c0,0.9,0,1,0,1.1h-15.5c0,0.7,0.2,1.3,0.4,1.8c0.6,3.9,3.3,5.4,7.2,5.4c2.4,0,4.9-0.5,6.6-1.4
		v2.1c-1.9,0.9-4.4,1.3-6.7,1.3c-4.6,0-9.5-2-9.5-10c0-3.2,1-10.8,9-10.8C-209.4,288.5-209.3,297.7-209.3,299.1z M-224.8,298.3h13.4
		c0-1-0.2-7.8-6.7-7.8C-222.5,290.5-224.6,293.4-224.8,298.3z"/>
	<path class="st0" d="M-202.1,291.8V309h-2v-18.6c1.2-0.5,4.9-1.9,9.5-1.9v2C-197.8,290.6-200.5,291.3-202.1,291.8z"/>
	<path class="st0" d="M-188.4,291.8V309h-2v-18.6c1.2-0.5,4.9-1.9,9.5-1.9v2C-184.1,290.6-186.8,291.3-188.4,291.8z"/>
	<path class="st0" d="M-161.8,297v6.1c0,5.5-5.6,6.2-8.1,6.2c-2.6,0-8.4-0.8-8.4-6.3c0-6.3,7.8-6.5,9.6-6.5c2.7,0,4.2,0.3,4.8,0.4
		c0-4.2-2.1-6.4-6.6-6.4c-2.6,0-4.8,0.6-5.7,0.9v-2c1.5-0.5,3.6-1,5.9-1C-164.4,288.5-161.8,291.5-161.8,297z M-163.8,298.8
		c-0.5-0.1-2.4-0.4-5.1-0.4c-2.5,0-7.3,0.6-7.3,4.6c0,3.7,3.9,4.4,6.4,4.4c2.4,0,6.1-0.7,6.1-4.3V298.8z"/>
	<g>
		<path class="st0" d="M-168.9,328.1v-10.1c0-0.2-0.1-0.3-0.3-0.3h-0.6c-0.2,0-0.3,0.1-0.3,0.3V329c0,0.2,0.1,0.3,0.3,0.3h7.3
			c0.2,0,0.3-0.1,0.3-0.3v-0.6c0-0.2-0.1-0.3-0.3-0.3H-168.9z"/>
		<path class="st0" d="M-190.4,317.7l-5.2,11.3c-0.1,0.2,0,0.4,0.2,0.4h0.8c0.1,0,0.2-0.1,0.2-0.1l1.4-3h6.3l1.4,3
			c0,0.1,0.1,0.1,0.2,0.1h0.9c0.2,0,0.3-0.2,0.2-0.4l-5.2-11.3c0-0.1-0.1-0.1-0.2-0.1h-0.8C-190.2,317.5-190.3,317.6-190.4,317.7z
			 M-187.2,324.9h-5.2l2.6-5.7L-187.2,324.9z"/>
		<path class="st0" d="M-217.4,318.8h3.6V329c0,0.2,0.1,0.3,0.3,0.3h0.7c0.2,0,0.3-0.1,0.3-0.3v-10.2h3.6c0.2,0,0.3-0.1,0.3-0.3
			v-0.7c0-0.2-0.1-0.3-0.3-0.3h-8.6c-0.2,0-0.3,0.1-0.3,0.3v0.7C-217.7,318.7-217.6,318.8-217.4,318.8z"/>
		<path class="st0" d="M-234,329.3h0.7c0.2,0,0.3-0.1,0.3-0.3v-11.2c0-0.2-0.1-0.3-0.3-0.3h-0.7c-0.2,0-0.3,0.1-0.3,0.3V329
			C-234.3,329.2-234.2,329.3-234,329.3z"/>
		<path class="st0" d="M-249.6,318.5c-0.4-0.3-0.9-0.6-1.4-0.7c-0.5-0.2-1.1-0.2-1.8-0.2h-4.1c-0.1,0-0.3,0.1-0.3,0.3v11.2
			c0,0.1,0.1,0.3,0.3,0.3h0.8c0.1,0,0.3-0.1,0.3-0.3v-3.9h2.8c0.6,0,1.2-0.1,1.7-0.2c0.6-0.2,1.1-0.4,1.5-0.7c0.4-0.3,0.8-0.7,1-1.2
			c0.3-0.5,0.4-1,0.4-1.7c0-0.6-0.1-1.1-0.3-1.6C-248.9,319.3-249.3,318.9-249.6,318.5z M-255.8,318.8h2.9c0.5,0,0.9,0.1,1.3,0.2
			c0.4,0.1,0.7,0.3,1,0.5c0.3,0.2,0.5,0.5,0.6,0.8c0.1,0.3,0.2,0.7,0.2,1.1c0,0.4-0.1,0.7-0.2,1c-0.2,0.3-0.4,0.6-0.6,0.8
			c-0.3,0.2-0.6,0.4-1,0.5c-0.4,0.1-0.9,0.2-1.4,0.2h-2.8V318.8z"/>
		<path class="st0" d="M-275.9,317.7l-5.2,11.3c-0.1,0.2,0,0.4,0.3,0.4h0.8c0.1,0,0.2-0.1,0.3-0.2l1.4-3h6.3l1.4,3
			c0,0.1,0.1,0.2,0.3,0.2h0.8c0.2,0,0.3-0.2,0.3-0.4l-5.2-11.3c0-0.1-0.1-0.2-0.3-0.2h-0.8C-275.7,317.5-275.8,317.6-275.9,317.7z
			 M-272.7,324.9h-5.2l2.6-5.7L-272.7,324.9z"/>
		<path class="st0" d="M-294.9,327.8c-0.6,0.3-1.2,0.4-2,0.4c-0.6,0-1.2-0.1-1.8-0.4c-0.5-0.2-1-0.6-1.4-1c-0.4-0.4-0.7-0.9-1-1.5
			c-0.2-0.6-0.4-1.2-0.4-1.9c0-0.7,0.1-1.3,0.3-1.9c0.2-0.6,0.5-1.1,0.9-1.5c0.4-0.4,0.9-0.8,1.4-1c0.5-0.2,1.1-0.4,1.8-0.4
			c0.4,0,0.8,0,1.1,0.1c0.3,0.1,0.7,0.2,0.9,0.3c0.3,0.1,0.6,0.3,0.8,0.5c0.1,0.1,0.4,0.3,0.6,0.5c0.2,0.2,0.4,0.1,0.6,0l0.3-0.3
			c0.2-0.2,0.2-0.5,0-0.6c-0.3-0.2-0.6-0.5-0.8-0.6c-0.3-0.2-0.7-0.4-1-0.6c-0.4-0.2-0.8-0.3-1.2-0.4c-0.4-0.1-0.9-0.1-1.4-0.1
			c-0.8,0-1.6,0.2-2.3,0.5c-0.7,0.3-1.3,0.8-1.9,1.3c-0.5,0.5-0.9,1.2-1.2,1.9c-0.3,0.7-0.4,1.5-0.4,2.4c0,0.8,0.1,1.6,0.4,2.4
			c0.3,0.7,0.7,1.4,1.2,1.9c0.5,0.5,1.1,1,1.9,1.3c0.7,0.3,1.5,0.5,2.3,0.5c0.5,0,1-0.1,1.4-0.2c0.4-0.1,0.8-0.2,1.2-0.4
			c0.4-0.2,0.7-0.4,1.1-0.6c0.2-0.1,0.5-0.4,0.8-0.7c0.2-0.2,0.2-0.5,0-0.6l-0.3-0.3c-0.2-0.2-0.4-0.2-0.6,0
			C-293.8,327-294.5,327.6-294.9,327.8z"/>
	</g>
</g>
</svg>
